<?xml version="1.0" encoding="UTF-8" standalone="no"?>
<!-- Created with Inkscape (http://www.inkscape.org/) -->

<svg
   version="1.1"
   id="svg1"
   width="720.90845"
   height="334.01266"
   viewBox="0 0 720.90845 334.01266"
   sodipodi:docname="Logo Benemérito Museo de los Niños VERSIONES.ai"
   xmlns:inkscape="http://www.inkscape.org/namespaces/inkscape"
   xmlns:sodipodi="http://sodipodi.sourceforge.net/DTD/sodipodi-0.dtd"
   xmlns="http://www.w3.org/2000/svg"
   xmlns:svg="http://www.w3.org/2000/svg">
  <sodipodi:namedview
     id="namedview1"
     pagecolor="#ffffff"
     bordercolor="#000000"
     borderopacity="0.25"
     inkscape:showpageshadow="2"
     inkscape:pageopacity="0.0"
     inkscape:pagecheckerboard="0"
     inkscape:deskcolor="#d1d1d1"
     inkscape:zoom="0.35842803"
     inkscape:cx="3600.4439"
     inkscape:cy="163.21268"
     inkscape:window-width="1920"
     inkscape:window-height="974"
     inkscape:window-x="-11"
     inkscape:window-y="-11"
     inkscape:window-maximized="1"
     inkscape:current-layer="layer-MC0">
    <inkscape:page
       x="-1.8033865e-07"
       y="4.6651194e-06"
       width="720.90845"
       height="334.01266"
       id="page2"
       margin="0"
       bleed="0" />
  </sodipodi:namedview>
  <defs
     id="defs1">
    <clipPath
       clipPathUnits="userSpaceOnUse"
       id="clipPath461">
      <path
         d="M 0,792 H 612 V 0 H 0 Z"
         transform="translate(-73.473077,-303.13771)"
         id="path461" />
    </clipPath>
    <clipPath
       clipPathUnits="userSpaceOnUse"
       id="clipPath463">
      <path
         d="M 0,792 H 612 V 0 H 0 Z"
         transform="translate(-88.374527,-313.47561)"
         id="path463" />
    </clipPath>
    <clipPath
       clipPathUnits="userSpaceOnUse"
       id="clipPath465">
      <path
         d="M 0,792 H 612 V 0 H 0 Z"
         id="path465" />
    </clipPath>
    <clipPath
       clipPathUnits="userSpaceOnUse"
       id="clipPath467">
      <path
         d="M 0,792 H 612 V 0 H 0 Z"
         transform="translate(-112.3599,-313.47561)"
         id="path467" />
    </clipPath>
    <clipPath
       clipPathUnits="userSpaceOnUse"
       id="clipPath469">
      <path
         d="M 0,792 H 612 V 0 H 0 Z"
         transform="translate(-139.0845,-313.47561)"
         id="path469" />
    </clipPath>
    <clipPath
       clipPathUnits="userSpaceOnUse"
       id="clipPath471">
      <path
         d="M 0,792 H 612 V 0 H 0 Z"
         transform="translate(-157.2954,-304.34961)"
         id="path471" />
    </clipPath>
    <clipPath
       clipPathUnits="userSpaceOnUse"
       id="clipPath473">
      <path
         d="M 0,792 H 612 V 0 H 0 Z"
         id="path473" />
    </clipPath>
    <clipPath
       clipPathUnits="userSpaceOnUse"
       id="clipPath475">
      <path
         d="M 0,792 H 612 V 0 H 0 Z"
         transform="translate(-179.48783,-317.56451)"
         id="path475" />
    </clipPath>
    <clipPath
       clipPathUnits="userSpaceOnUse"
       id="clipPath477">
      <path
         d="M 0,792 H 612 V 0 H 0 Z"
         transform="translate(-190.20563,-313.47561)"
         id="path477" />
    </clipPath>
    <clipPath
       clipPathUnits="userSpaceOnUse"
       id="clipPath479">
      <path
         d="M 0,792 H 612 V 0 H 0 Z"
         transform="translate(-220.17631,-301.34571)"
         id="path479" />
    </clipPath>
    <clipPath
       clipPathUnits="userSpaceOnUse"
       id="clipPath481">
      <path
         d="M 0,792 H 612 V 0 H 0 Z"
         transform="translate(-232.12651,-313.47561)"
         id="path481" />
    </clipPath>
    <clipPath
       clipPathUnits="userSpaceOnUse"
       id="clipPath483">
      <path
         d="M 0,792 H 612 V 0 H 0 Z"
         transform="translate(-247.75441,-313.47561)"
         id="path483" />
    </clipPath>
    <clipPath
       clipPathUnits="userSpaceOnUse"
       id="clipPath485">
      <path
         d="M 0,792 H 612 V 0 H 0 Z"
         transform="translate(-265.69088,-313.47561)"
         id="path485" />
    </clipPath>
    <clipPath
       clipPathUnits="userSpaceOnUse"
       id="clipPath487">
      <path
         d="M 0,792 H 612 V 0 H 0 Z"
         transform="translate(-281.23388,-313.47561)"
         id="path487" />
    </clipPath>
    <clipPath
       clipPathUnits="userSpaceOnUse"
       id="clipPath489">
      <path
         d="M 0,792 H 612 V 0 H 0 Z"
         transform="translate(-307.75928,-317.56451)"
         id="path489" />
    </clipPath>
    <clipPath
       clipPathUnits="userSpaceOnUse"
       id="clipPath491">
      <path
         d="M 0,792 H 612 V 0 H 0 Z"
         transform="translate(-322.10108,-307.21581)"
         id="path491" />
    </clipPath>
    <clipPath
       clipPathUnits="userSpaceOnUse"
       id="clipPath493">
      <path
         d="M 0,792 H 612 V 0 H 0 Z"
         id="path493" />
    </clipPath>
    <clipPath
       clipPathUnits="userSpaceOnUse"
       id="clipPath495">
      <path
         d="M 0,792 H 612 V 0 H 0 Z"
         transform="translate(-341.34421,-313.47561)"
         id="path495" />
    </clipPath>
    <clipPath
       clipPathUnits="userSpaceOnUse"
       id="clipPath497">
      <path
         d="M 0,792 H 612 V 0 H 0 Z"
         transform="translate(-364.60208,-303.91701)"
         id="path497" />
    </clipPath>
    <clipPath
       clipPathUnits="userSpaceOnUse"
       id="clipPath499">
      <path
         d="M 0,792 H 612 V 0 H 0 Z"
         transform="translate(-384.91748,-309.97661)"
         id="path499" />
    </clipPath>
    <clipPath
       clipPathUnits="userSpaceOnUse"
       id="clipPath501">
      <path
         d="M 0,792 H 612 V 0 H 0 Z"
         transform="translate(-396.85688,-313.47561)"
         id="path501" />
    </clipPath>
    <clipPath
       clipPathUnits="userSpaceOnUse"
       id="clipPath503">
      <path
         d="M 0,792 H 612 V 0 H 0 Z"
         transform="translate(-429.93601,-304.34961)"
         id="path503" />
    </clipPath>
    <clipPath
       clipPathUnits="userSpaceOnUse"
       id="clipPath505">
      <path
         d="M 0,792 H 612 V 0 H 0 Z"
         transform="translate(-440.20074,-305.71971)"
         id="path505" />
    </clipPath>
    <clipPath
       clipPathUnits="userSpaceOnUse"
       id="clipPath507">
      <path
         d="M 0,792 H 612 V 0 H 0 Z"
         transform="translate(-453.08739,-303.13771)"
         id="path507" />
    </clipPath>
    <clipPath
       clipPathUnits="userSpaceOnUse"
       id="clipPath509">
      <path
         d="M 0,792 H 612 V 0 H 0 Z"
         transform="translate(-468.01029,-313.47561)"
         id="path509" />
    </clipPath>
    <clipPath
       clipPathUnits="userSpaceOnUse"
       id="clipPath511">
      <path
         d="M 0,792 H 612 V 0 H 0 Z"
         transform="translate(-491.26809,-303.91701)"
         id="path511" />
    </clipPath>
    <clipPath
       clipPathUnits="userSpaceOnUse"
       id="clipPath513">
      <path
         d="M 0,792 H 612 V 0 H 0 Z"
         transform="translate(-511.60299,-307.21581)"
         id="path513" />
    </clipPath>
    <clipPath
       clipPathUnits="userSpaceOnUse"
       id="clipPath515">
      <path
         d="M 0,792 H 612 V 0 H 0 Z"
         id="path515" />
    </clipPath>
    <clipPath
       clipPathUnits="userSpaceOnUse"
       id="clipPath517">
      <path
         d="M 0,792 H 612 V 0 H 0 Z"
         transform="translate(-542.21731,-304.34961)"
         id="path517" />
    </clipPath>
    <clipPath
       clipPathUnits="userSpaceOnUse"
       id="clipPath519">
      <path
         d="M 0,792 H 612 V 0 H 0 Z"
         transform="translate(-557.11869,-303.91701)"
         id="path519" />
    </clipPath>
    <clipPath
       clipPathUnits="userSpaceOnUse"
       id="clipPath521">
      <path
         d="M 0,792 H 612 V 0 H 0 Z"
         transform="translate(-400.41054,-425.74211)"
         id="path521" />
    </clipPath>
    <clipPath
       clipPathUnits="userSpaceOnUse"
       id="clipPath523">
      <path
         d="M 0,792 H 612 V 0 H 0 Z"
         transform="translate(-259.79348,-548.26672)"
         id="path523" />
    </clipPath>
    <clipPath
       clipPathUnits="userSpaceOnUse"
       id="clipPath525">
      <path
         d="M 0,792 H 612 V 0 H 0 Z"
         transform="translate(-352.26143,-480.25421)"
         id="path525" />
    </clipPath>
    <clipPath
       clipPathUnits="userSpaceOnUse"
       id="clipPath527">
      <path
         d="M 0,792 H 612 V 0 H 0 Z"
         transform="translate(-407.39881,-470.53961)"
         id="path527" />
    </clipPath>
    <clipPath
       clipPathUnits="userSpaceOnUse"
       id="clipPath529">
      <path
         d="M 0,792 H 612 V 0 H 0 Z"
         transform="translate(-490.88724,-482.06721)"
         id="path529" />
    </clipPath>
    <clipPath
       clipPathUnits="userSpaceOnUse"
       id="clipPath531">
      <path
         d="M 0,792 H 612 V 0 H 0 Z"
         transform="translate(-576.34051,-485.43711)"
         id="path531" />
    </clipPath>
    <clipPath
       clipPathUnits="userSpaceOnUse"
       id="clipPath533">
      <path
         d="M 0,792 H 612 V 0 H 0 Z"
         transform="translate(-209.47943,-395.87881)"
         id="path533" />
    </clipPath>
    <clipPath
       clipPathUnits="userSpaceOnUse"
       id="clipPath535">
      <path
         d="M 0,792 H 612 V 0 H 0 Z"
         transform="translate(-242.84093,-394.74341)"
         id="path535" />
    </clipPath>
    <clipPath
       clipPathUnits="userSpaceOnUse"
       id="clipPath537">
      <path
         d="M 0,792 H 612 V 0 H 0 Z"
         id="path537" />
    </clipPath>
    <clipPath
       clipPathUnits="userSpaceOnUse"
       id="clipPath539">
      <path
         d="M 0,792 H 612 V 0 H 0 Z"
         transform="translate(-217.94071,-348.58001)"
         id="path539" />
    </clipPath>
    <clipPath
       clipPathUnits="userSpaceOnUse"
       id="clipPath541">
      <path
         d="M 0,792 H 612 V 0 H 0 Z"
         transform="translate(-243.67538,-341.30671)"
         id="path541" />
    </clipPath>
    <clipPath
       clipPathUnits="userSpaceOnUse"
       id="clipPath543">
      <path
         d="M 0,792 H 612 V 0 H 0 Z"
         transform="translate(-323.47861,-429.54631)"
         id="path543" />
    </clipPath>
    <clipPath
       clipPathUnits="userSpaceOnUse"
       id="clipPath545">
      <path
         d="M 0,792 H 612 V 0 H 0 Z"
         id="path545" />
    </clipPath>
    <clipPath
       clipPathUnits="userSpaceOnUse"
       id="clipPath547">
      <path
         d="M 0,792 H 612 V 0 H 0 Z"
         transform="translate(-433.49439,-329.78411)"
         id="path547" />
    </clipPath>
    <clipPath
       clipPathUnits="userSpaceOnUse"
       id="clipPath549">
      <path
         d="M 0,792 H 612 V 0 H 0 Z"
         transform="translate(-522.19719,-366.71421)"
         id="path549" />
    </clipPath>
    <clipPath
       clipPathUnits="userSpaceOnUse"
       id="clipPath551">
      <path
         d="M 0,792 H 612 V 0 H 0 Z"
         transform="translate(-576.13119,-351.81381)"
         id="path551" />
    </clipPath>
    <clipPath
       clipPathUnits="userSpaceOnUse"
       id="clipPath553">
      <path
         d="M 0,792 H 612 V 0 H 0 Z"
         id="path553" />
    </clipPath>
    <clipPath
       clipPathUnits="userSpaceOnUse"
       id="clipPath554">
      <path
         d="M 39.3512,390.667 H 129.747 V 368.211 H 39.3512 Z"
         transform="translate(-67.386977,-368.21081)"
         id="path554" />
    </clipPath>
    <clipPath
       clipPathUnits="userSpaceOnUse"
       id="clipPath556">
      <path
         d="M 0,792 H 612 V 0 H 0 Z"
         transform="matrix(1.3333333,0,0,-1.3333333,3344,1056)"
         id="path556" />
    </clipPath>
    <clipPath
       clipPathUnits="userSpaceOnUse"
       id="clipPath558">
      <path
         d="M 0,792 H 612 V 0 H 0 Z"
         transform="translate(-39.202201,-375.48151)"
         id="path558" />
    </clipPath>
    <clipPath
       clipPathUnits="userSpaceOnUse"
       id="clipPath560">
      <path
         d="M 0,792 H 612 V 0 H 0 Z"
         transform="translate(-129.74828,-432.40871)"
         id="path560" />
    </clipPath>
    <clipPath
       clipPathUnits="userSpaceOnUse"
       id="clipPath562">
      <path
         d="M 0,792 H 612 V 0 H 0 Z"
         transform="translate(-129.74828,-384.70701)"
         id="path562" />
    </clipPath>
    <clipPath
       clipPathUnits="userSpaceOnUse"
       id="clipPath564">
      <path
         d="M 0,792 H 612 V 0 H 0 Z"
         transform="translate(-39.639226,-484.66011)"
         id="path564" />
    </clipPath>
    <clipPath
       clipPathUnits="userSpaceOnUse"
       id="clipPath565">
      <path
         d="m 39.2022,438.447 h 90.5468 v -22.54 H 39.2022 Z"
         transform="translate(-105.7299,-436.72021)"
         id="path565" />
    </clipPath>
    <clipPath
       clipPathUnits="userSpaceOnUse"
       id="clipPath567">
      <path
         d="M 0,792 H 612 V 0 H 0 Z"
         transform="matrix(1.3333333,0,0,-1.3333333,3344,1056)"
         id="path567" />
    </clipPath>
    <clipPath
       clipPathUnits="userSpaceOnUse"
       id="clipPath569">
      <path
         d="M 0,792 H 612 V 0 H 0 Z"
         transform="translate(-82.789502,-443.43131)"
         id="path569" />
    </clipPath>
    <clipPath
       clipPathUnits="userSpaceOnUse"
       id="clipPath571">
      <path
         d="M 0,792 H 612 V 0 H 0 Z"
         transform="translate(-87.131402,-467.80011)"
         id="path571" />
    </clipPath>
  </defs>
  <g
     id="layer-MC0"
     inkscape:groupmode="layer"
     inkscape:label="Layer 1"
     transform="translate(-3391.5457,-324.97067)">
    <path
       id="path458"
       d="m 48.119,313.476 h 4.784 v -15.449 h -4.784 z"
       style="fill:#ffffff;fill-opacity:1;fill-rule:nonzero;stroke:none"
       transform="matrix(1.3333333,0,0,-1.3333333,3344,1056)" />
    <path
       id="path459"
       d="m 0,0 h 4.457 l 5.817,-8.548 V 0 h 4.5 v -15.449 h -4.5 l -5.785,8.482 v -8.482 H 0 Z"
       style="fill:#ffffff;fill-opacity:1;fill-rule:nonzero;stroke:none"
       transform="matrix(1.3333333,0,0,-1.3333333,3419.1465,638.03253)" />
    <path
       id="path460"
       d="m 0,0 4.542,0.284 c 0.099,-0.737 0.299,-1.3 0.601,-1.686 0.492,-0.625 1.194,-0.938 2.108,-0.938 0.681,0 1.206,0.16 1.575,0.48 0.369,0.319 0.553,0.69 0.553,1.112 0,0.4 -0.175,0.758 -0.526,1.074 C 8.501,0.643 7.687,0.941 6.407,1.222 4.314,1.692 2.821,2.318 1.929,3.098 1.029,3.878 0.58,4.872 0.58,6.08 c 0,0.794 0.23,1.544 0.691,2.25 0.459,0.706 1.152,1.261 2.076,1.665 0.923,0.404 2.189,0.607 3.799,0.607 1.973,0 3.479,-0.368 4.515,-1.102 1.036,-0.734 1.652,-1.902 1.85,-3.504 L 9.011,5.732 C 8.891,6.428 8.64,6.934 8.257,7.25 7.874,7.566 7.346,7.725 6.671,7.725 6.116,7.725 5.698,7.606 5.417,7.371 5.136,7.136 4.995,6.85 4.995,6.513 4.995,6.267 5.111,6.045 5.344,5.849 5.568,5.645 6.102,5.455 6.945,5.279 9.031,4.83 10.526,4.375 11.429,3.915 c 0.903,-0.461 1.559,-1.031 1.97,-1.713 0.412,-0.681 0.618,-1.443 0.618,-2.287 0,-0.99 -0.275,-1.903 -0.823,-2.739 -0.548,-0.837 -1.313,-1.471 -2.298,-1.903 -0.983,-0.432 -2.223,-0.648 -3.719,-0.648 -2.628,0 -4.448,0.506 -5.459,1.518 C 0.706,-2.846 0.134,-1.56 0,0"
       style="fill:#ffffff;fill-opacity:1;fill-rule:nonzero;stroke:none"
       transform="matrix(1.3333333,0,0,-1.3333333,3441.9641,651.8164)"
       clip-path="url(#clipPath461)" />
    <path
       id="path462"
       d="M 0,0 H 14.512 V -3.815 H 9.643 V -15.449 H 4.869 V -3.815 H 0 Z"
       style="fill:#ffffff;fill-opacity:1;fill-rule:nonzero;stroke:none"
       transform="matrix(1.3333333,0,0,-1.3333333,3461.8327,638.03253)"
       clip-path="url(#clipPath463)" />
    <path
       id="path464"
       d="m 105.236,313.476 h 4.784 v -15.449 h -4.784 z"
       style="fill:#ffffff;fill-opacity:1;fill-rule:nonzero;stroke:none"
       transform="matrix(1.3333333,0,0,-1.3333333,3344,1056)"
       clip-path="url(#clipPath465)" />
    <path
       id="path466"
       d="M 0,0 H 14.511 V -3.815 H 9.643 V -15.449 H 4.868 V -3.815 H 0 Z"
       style="fill:#ffffff;fill-opacity:1;fill-rule:nonzero;stroke:none"
       transform="matrix(1.3333333,0,0,-1.3333333,3493.8132,638.03253)"
       clip-path="url(#clipPath467)" />
    <path
       id="path468"
       d="m 0,0 h 4.764 v -9.204 c 0,-0.913 -0.143,-1.775 -0.427,-2.586 -0.285,-0.811 -0.732,-1.52 -1.339,-2.127 -0.607,-0.607 -1.245,-1.034 -1.912,-1.279 -0.928,-0.345 -2.041,-0.517 -3.341,-0.517 -0.752,0 -1.572,0.053 -2.461,0.158 -0.888,0.106 -1.632,0.315 -2.228,0.627 -0.598,0.313 -1.144,0.756 -1.639,1.332 -0.495,0.575 -0.835,1.169 -1.018,1.78 -0.295,0.983 -0.442,1.853 -0.442,2.612 V 0 h 4.764 v -9.424 c 0,-0.842 0.233,-1.5 0.7,-1.973 0.468,-0.475 1.115,-0.711 1.944,-0.711 0.823,0 1.467,0.233 1.935,0.7 0.467,0.467 0.7,1.128 0.7,1.984 z"
       style="fill:#ffffff;fill-opacity:1;fill-rule:nonzero;stroke:none"
       transform="matrix(1.3333333,0,0,-1.3333333,3529.446,638.03253)"
       clip-path="url(#clipPath469)" />
    <path
       id="path470"
       d="M 0,0 4.184,-1.265 C 3.902,-2.438 3.46,-3.418 2.855,-4.205 2.251,-4.992 1.501,-5.586 0.605,-5.986 -0.29,-6.387 -1.431,-6.587 -2.814,-6.587 c -1.679,0 -3.051,0.244 -4.116,0.733 -1.064,0.487 -1.982,1.345 -2.755,2.574 -0.773,1.228 -1.16,2.801 -1.16,4.718 0,2.555 0.681,4.52 2.04,5.892 1.36,1.373 3.283,2.06 5.77,2.06 C -1.09,9.39 0.44,8.996 1.554,8.209 2.667,7.422 3.494,6.214 4.036,4.584 L -0.18,3.646 C -0.327,4.116 -0.481,4.461 -0.644,4.679 -0.91,5.044 -1.237,5.325 -1.623,5.521 -2.01,5.719 -2.441,5.816 -2.92,5.816 -4.002,5.816 -4.831,5.382 -5.406,4.512 -5.842,3.866 -6.06,2.852 -6.06,1.47 c 0,-1.712 0.26,-2.886 0.78,-3.521 0.519,-0.636 1.251,-0.953 2.192,-0.953 0.913,0 1.604,0.257 2.07,0.77 C -0.55,-1.722 -0.211,-0.977 0,0"
       style="fill:#ffffff;fill-opacity:1;fill-rule:nonzero;stroke:none"
       transform="matrix(1.3333333,0,0,-1.3333333,3553.7272,650.20053)"
       clip-path="url(#clipPath471)" />
    <path
       id="path472"
       d="m 163.987,313.476 h 4.784 v -15.449 h -4.784 z"
       style="fill:#ffffff;fill-opacity:1;fill-rule:nonzero;stroke:none"
       transform="matrix(1.3333333,0,0,-1.3333333,3344,1056)"
       clip-path="url(#clipPath473)" />
    <path
       id="path474"
       d="M 0,0 H 3.688 L 0.285,-3.151 h -2.056 z m -3.119,-11.845 c 0,-1.56 0.29,-2.68 0.869,-3.362 0.58,-0.682 1.368,-1.022 2.366,-1.022 1.026,0 1.82,0.333 2.382,1.001 0.562,0.667 0.843,1.866 0.843,3.593 0,1.454 -0.293,2.518 -0.88,3.189 -0.587,0.671 -1.382,1.006 -2.387,1.006 -0.963,0 -1.735,-0.341 -2.318,-1.023 -0.583,-0.681 -0.875,-1.808 -0.875,-3.382 m -4.774,0.021 c 0,2.522 0.703,4.485 2.108,5.89 1.405,1.406 3.361,2.109 5.87,2.109 2.571,0 4.552,-0.691 5.943,-2.071 1.391,-1.381 2.086,-3.315 2.086,-5.801 0,-1.806 -0.303,-3.287 -0.911,-4.443 -0.607,-1.155 -1.485,-2.054 -2.635,-2.697 -1.148,-0.643 -2.58,-0.965 -4.294,-0.965 -1.742,0 -3.184,0.278 -4.326,0.833 -1.141,0.555 -2.067,1.433 -2.776,2.634 -0.71,1.202 -1.065,2.705 -1.065,4.511"
       style="fill:#ffffff;fill-opacity:1;fill-rule:nonzero;stroke:none"
       transform="matrix(1.3333333,0,0,-1.3333333,3583.3171,632.58067)"
       clip-path="url(#clipPath475)" />
    <path
       id="path476"
       d="m 0,0 h 4.457 l 5.817,-8.548 V 0 h 4.5 v -15.449 h -4.5 l -5.785,8.482 v -8.482 H 0 Z"
       style="fill:#ffffff;fill-opacity:1;fill-rule:nonzero;stroke:none"
       transform="matrix(1.3333333,0,0,-1.3333333,3597.6075,638.03253)"
       clip-path="url(#clipPath477)" />
    <path
       id="path478"
       d="M 0,0 H 2.434 C 3.256,0 3.836,0.146 4.173,0.437 4.51,0.729 4.679,1.121 4.679,1.612 4.679,2.069 4.512,2.437 4.178,2.714 3.845,2.991 3.26,3.13 2.424,3.13 H 0 Z M 0,6.07 H 2.076 C 2.82,6.07 3.339,6.198 3.63,6.455 3.922,6.711 4.067,7.082 4.067,7.566 4.067,8.017 3.922,8.367 3.63,8.62 3.339,8.873 2.831,9 2.107,9 H 0 Z m -4.816,6.06 H 4.12 c 1.489,0 2.633,-0.369 3.431,-1.107 C 8.348,10.285 8.746,9.372 8.746,8.283 8.746,7.37 8.462,6.587 7.893,5.934 7.514,5.497 6.958,5.153 6.228,4.9 7.338,4.634 8.154,4.175 8.678,3.525 9.201,2.875 9.463,2.059 9.463,1.075 9.463,0.274 9.276,-0.446 8.904,-1.085 8.532,-1.725 8.022,-2.23 7.377,-2.603 6.976,-2.835 6.372,-3.003 5.563,-3.108 4.489,-3.249 3.775,-3.319 3.425,-3.319 h -8.241 z"
       style="fill:#ffffff;fill-opacity:1;fill-rule:nonzero;stroke:none"
       transform="matrix(1.3333333,0,0,-1.3333333,3637.5684,654.20573)"
       clip-path="url(#clipPath479)" />
    <path
       id="path480"
       d="m 0,0 h 12.794 v -3.299 h -8.01 v -2.455 h 7.43 v -3.151 h -7.43 v -3.045 h 8.241 v -3.499 H 0 Z"
       style="fill:#ffffff;fill-opacity:1;fill-rule:nonzero;stroke:none"
       transform="matrix(1.3333333,0,0,-1.3333333,3653.502,638.03253)"
       clip-path="url(#clipPath481)" />
    <path
       id="path482"
       d="m 0,0 h 4.458 l 5.817,-8.548 V 0 h 4.499 v -15.449 h -4.499 l -5.786,8.482 v -8.482 H 0 Z"
       style="fill:#ffffff;fill-opacity:1;fill-rule:nonzero;stroke:none"
       transform="matrix(1.3333333,0,0,-1.3333333,3674.3392,638.03253)"
       clip-path="url(#clipPath483)" />
    <path
       id="path484"
       d="M 0,0 H 12.793 V -3.299 H 4.784 v -2.455 h 7.43 v -3.151 h -7.43 v -3.045 h 8.24 v -3.499 H 0 Z"
       style="fill:#ffffff;fill-opacity:1;fill-rule:nonzero;stroke:none"
       transform="matrix(1.3333333,0,0,-1.3333333,3698.2545,638.03253)"
       clip-path="url(#clipPath485)" />
    <path
       id="path486"
       d="M 0,0 H 6.278 L 8.7,-9.4 11.104,0 h 6.274 v -15.449 h -3.91 V -3.668 L 10.456,-15.449 H 6.917 L 3.91,-3.668 V -15.449 H 0 Z"
       style="fill:#ffffff;fill-opacity:1;fill-rule:nonzero;stroke:none"
       transform="matrix(1.3333333,0,0,-1.3333333,3718.9785,638.03253)"
       clip-path="url(#clipPath487)" />
    <path
       id="path488"
       d="M 0,0 H 3.688 L 0.284,-3.151 H -1.771 Z M -6.112,-4.089 H 6.681 v -3.299 h -8.009 v -2.455 h 7.43 v -3.151 h -7.43 v -3.045 h 8.241 v -3.499 H -6.112 Z"
       style="fill:#ffffff;fill-opacity:1;fill-rule:nonzero;stroke:none"
       transform="matrix(1.3333333,0,0,-1.3333333,3754.3457,632.58067)"
       clip-path="url(#clipPath489)" />
    <path
       id="path490"
       d="m 0,0 h 2.013 c 0.217,0 0.639,0.07 1.264,0.211 0.317,0.062 0.576,0.225 0.776,0.484 0.2,0.26 0.3,0.559 0.3,0.896 C 4.353,2.09 4.194,2.473 3.878,2.74 3.563,3.007 2.969,3.141 2.098,3.141 H 0 Z M -4.795,-9.189 V 6.26 H 3.162 C 4.637,6.26 5.765,6.133 6.545,5.88 7.324,5.627 7.953,5.158 8.431,4.474 8.908,3.788 9.147,2.954 9.147,1.971 9.147,1.113 8.965,0.374 8.6,-0.248 8.233,-0.869 7.73,-1.374 7.092,-1.76 6.684,-2.006 6.125,-2.21 5.415,-2.371 5.983,-2.562 6.397,-2.751 6.657,-2.94 6.833,-3.067 7.088,-3.338 7.421,-3.753 7.755,-4.168 7.978,-4.488 8.09,-4.713 l 2.311,-4.476 H 5.008 l -2.552,4.72 C 2.133,-3.857 1.845,-3.46 1.592,-3.277 1.247,-3.039 0.857,-2.919 0.422,-2.919 H 0 v -6.27 z"
       style="fill:#ffffff;fill-opacity:1;fill-rule:nonzero;stroke:none"
       transform="matrix(1.3333333,0,0,-1.3333333,3773.4681,646.37893)"
       clip-path="url(#clipPath491)" />
    <path
       id="path492"
       d="m 334.22,313.476 h 4.784 v -15.449 h -4.784 z"
       style="fill:#ffffff;fill-opacity:1;fill-rule:nonzero;stroke:none"
       transform="matrix(1.3333333,0,0,-1.3333333,3344,1056)"
       clip-path="url(#clipPath493)" />
    <path
       id="path494"
       d="M 0,0 H 14.512 V -3.815 H 9.643 V -15.449 H 4.869 V -3.815 H 0 Z"
       style="fill:#ffffff;fill-opacity:1;fill-rule:nonzero;stroke:none"
       transform="matrix(1.3333333,0,0,-1.3333333,3799.1256,638.03253)"
       clip-path="url(#clipPath495)" />
    <path
       id="path496"
       d="M 0,0 -1.705,5.554 -3.393,0 Z m 0.99,-3.341 h -5.419 l -0.753,-2.55 h -4.875 L -4.25,9.559 H 0.957 L 6.763,-5.891 H 1.764 Z"
       style="fill:#ffffff;fill-opacity:1;fill-rule:nonzero;stroke:none"
       transform="matrix(1.3333333,0,0,-1.3333333,3830.1361,650.77733)"
       clip-path="url(#clipPath497)" />
    <path
       id="path498"
       d="m 0,0 v -8.441 h 1.17 c 0.997,0 1.707,0.111 2.128,0.332 0.422,0.221 0.752,0.608 0.991,1.159 0.238,0.552 0.358,1.445 0.358,2.682 0,1.637 -0.267,2.757 -0.8,3.362 C 3.313,-0.302 2.427,0 1.19,0 Z M -4.774,3.499 H 2.318 C 3.716,3.499 4.846,3.31 5.706,2.93 6.566,2.551 7.278,2.006 7.84,1.296 8.402,0.587 8.81,-0.239 9.063,-1.18 9.315,-2.122 9.442,-3.119 9.442,-4.173 9.442,-5.824 9.254,-7.104 8.878,-8.015 8.502,-8.924 7.98,-9.687 7.313,-10.301 6.646,-10.916 5.929,-11.325 5.163,-11.528 4.116,-11.81 3.168,-11.95 2.318,-11.95 h -7.092 z"
       style="fill:#ffffff;fill-opacity:1;fill-rule:nonzero;stroke:none"
       transform="matrix(1.3333333,0,0,-1.3333333,3857.2233,642.69787)"
       clip-path="url(#clipPath499)" />
    <path
       id="path500"
       d="M 0,0 H 12.793 V -3.299 H 4.784 v -2.455 h 7.43 v -3.151 h -7.43 v -3.045 h 8.241 v -3.499 H 0 Z"
       style="fill:#ffffff;fill-opacity:1;fill-rule:nonzero;stroke:none"
       transform="matrix(1.3333333,0,0,-1.3333333,3873.1425,638.03253)"
       clip-path="url(#clipPath501)" />
    <path
       id="path502"
       d="M 0,0 4.184,-1.265 C 3.902,-2.438 3.46,-3.418 2.855,-4.205 2.251,-4.992 1.502,-5.586 0.605,-5.986 -0.29,-6.387 -1.43,-6.587 -2.813,-6.587 c -1.68,0 -3.051,0.244 -4.116,0.733 -1.064,0.487 -1.983,1.345 -2.756,2.574 -0.773,1.228 -1.159,2.801 -1.159,4.718 0,2.555 0.68,4.52 2.039,5.892 1.36,1.373 3.283,2.06 5.77,2.06 1.946,0 3.475,-0.394 4.589,-1.181 C 2.668,7.422 3.495,6.214 4.036,4.584 L -0.18,3.646 C -0.327,4.116 -0.481,4.461 -0.643,4.679 -0.91,5.044 -1.236,5.325 -1.623,5.521 -2.01,5.719 -2.441,5.816 -2.919,5.816 -4.001,5.816 -4.83,5.382 -5.406,4.512 -5.842,3.866 -6.06,2.852 -6.06,1.47 c 0,-1.712 0.26,-2.886 0.78,-3.521 0.52,-0.636 1.251,-0.953 2.192,-0.953 0.913,0 1.604,0.257 2.07,0.77 C -0.55,-1.722 -0.211,-0.977 0,0"
       style="fill:#ffffff;fill-opacity:1;fill-rule:nonzero;stroke:none"
       transform="matrix(1.3333333,0,0,-1.3333333,3917.248,650.20053)"
       clip-path="url(#clipPath503)" />
    <path
       id="path504"
       d="m 0,0 c 0,-1.561 0.29,-2.681 0.869,-3.362 0.58,-0.682 1.368,-1.023 2.366,-1.023 1.026,0 1.82,0.334 2.382,1.002 C 6.179,-2.716 6.46,-1.518 6.46,0.21 6.46,1.664 6.166,2.728 5.58,3.398 4.993,4.069 4.197,4.404 3.193,4.404 2.23,4.404 1.458,4.063 0.875,3.382 0.291,2.701 0,1.573 0,0 m -4.773,0.021 c 0,2.522 0.702,4.485 2.107,5.89 1.405,1.405 3.361,2.109 5.869,2.109 2.571,0 4.553,-0.691 5.944,-2.072 1.391,-1.381 2.086,-3.314 2.086,-5.801 0,-1.805 -0.303,-3.287 -0.911,-4.442 C 9.714,-5.45 8.836,-6.35 7.687,-6.992 6.539,-7.636 5.107,-7.957 3.394,-7.957 c -1.744,0 -3.185,0.277 -4.327,0.833 -1.141,0.555 -2.067,1.433 -2.777,2.634 -0.709,1.202 -1.063,2.705 -1.063,4.511"
       style="fill:#ffffff;fill-opacity:1;fill-rule:nonzero;stroke:none"
       transform="matrix(1.3333333,0,0,-1.3333333,3930.9343,648.37373)"
       clip-path="url(#clipPath505)" />
    <path
       id="path506"
       d="m 0,0 4.542,0.284 c 0.099,-0.737 0.299,-1.3 0.601,-1.686 0.492,-0.625 1.194,-0.938 2.107,-0.938 0.682,0 1.207,0.16 1.576,0.48 0.368,0.319 0.553,0.69 0.553,1.112 0,0.4 -0.176,0.758 -0.526,1.074 C 8.501,0.643 7.686,0.941 6.407,1.222 4.313,1.692 2.82,2.318 1.929,3.098 1.029,3.878 0.58,4.872 0.58,6.08 c 0,0.794 0.23,1.544 0.69,2.25 0.46,0.706 1.152,1.261 2.076,1.665 0.924,0.404 2.19,0.607 3.8,0.607 1.973,0 3.478,-0.368 4.515,-1.102 1.036,-0.734 1.652,-1.902 1.849,-3.504 L 9.011,5.732 C 8.891,6.428 8.64,6.934 8.257,7.25 7.874,7.566 7.346,7.725 6.671,7.725 6.116,7.725 5.697,7.606 5.417,7.371 5.136,7.136 4.995,6.85 4.995,6.513 4.995,6.267 5.111,6.045 5.343,5.849 5.567,5.645 6.102,5.455 6.945,5.279 9.031,4.83 10.526,4.375 11.429,3.915 c 0.902,-0.461 1.559,-1.031 1.97,-1.713 0.412,-0.681 0.617,-1.443 0.617,-2.287 0,-0.99 -0.274,-1.903 -0.822,-2.739 C 12.646,-3.661 11.88,-4.295 10.896,-4.727 9.913,-5.159 8.673,-5.375 7.177,-5.375 4.549,-5.375 2.729,-4.869 1.718,-3.857 0.706,-2.846 0.134,-1.56 0,0"
       style="fill:#ffffff;fill-opacity:1;fill-rule:nonzero;stroke:none"
       transform="matrix(1.3333333,0,0,-1.3333333,3948.1165,651.8164)"
       clip-path="url(#clipPath507)" />
    <path
       id="path508"
       d="M 0,0 H 14.512 V -3.815 H 9.643 V -15.449 H 4.869 V -3.815 H 0 Z"
       style="fill:#ffffff;fill-opacity:1;fill-rule:nonzero;stroke:none"
       transform="matrix(1.3333333,0,0,-1.3333333,3968.0137,638.03253)"
       clip-path="url(#clipPath509)" />
    <path
       id="path510"
       d="M 0,0 -1.705,5.554 -3.393,0 Z m 0.99,-3.341 h -5.419 l -0.753,-2.55 h -4.875 L -4.25,9.559 H 0.957 L 6.763,-5.891 H 1.764 Z"
       style="fill:#ffffff;fill-opacity:1;fill-rule:nonzero;stroke:none"
       transform="matrix(1.3333333,0,0,-1.3333333,3999.0241,650.77733)"
       clip-path="url(#clipPath511)" />
    <path
       id="path512"
       d="m 0,0 h 2.013 c 0.217,0 0.639,0.07 1.264,0.211 0.317,0.062 0.576,0.225 0.776,0.484 0.2,0.26 0.3,0.559 0.3,0.896 C 4.353,2.09 4.194,2.473 3.878,2.74 3.563,3.007 2.969,3.141 2.098,3.141 H 0 Z M -4.795,-9.189 V 6.26 H 3.162 C 4.637,6.26 5.765,6.133 6.545,5.88 7.324,5.627 7.953,5.158 8.431,4.474 8.908,3.788 9.147,2.954 9.147,1.971 9.147,1.113 8.965,0.374 8.6,-0.248 8.233,-0.869 7.73,-1.374 7.092,-1.76 6.684,-2.006 6.125,-2.21 5.415,-2.371 5.983,-2.562 6.397,-2.751 6.657,-2.94 6.833,-3.067 7.088,-3.338 7.421,-3.753 7.755,-4.168 7.978,-4.488 8.09,-4.713 l 2.311,-4.476 H 5.008 l -2.552,4.72 C 2.133,-3.857 1.845,-3.46 1.592,-3.277 1.247,-3.039 0.857,-2.919 0.422,-2.919 H 0 v -6.27 z"
       style="fill:#ffffff;fill-opacity:1;fill-rule:nonzero;stroke:none"
       transform="matrix(1.3333333,0,0,-1.3333333,4026.1373,646.37893)"
       clip-path="url(#clipPath513)" />
    <path
       id="path514"
       d="m 523.723,313.476 h 4.784 v -15.449 h -4.784 z"
       style="fill:#ffffff;fill-opacity:1;fill-rule:nonzero;stroke:none"
       transform="matrix(1.3333333,0,0,-1.3333333,3344,1056)"
       clip-path="url(#clipPath515)" />
    <path
       id="path516"
       d="M 0,0 4.184,-1.265 C 3.902,-2.438 3.46,-3.418 2.855,-4.205 2.251,-4.992 1.502,-5.586 0.605,-5.986 -0.29,-6.387 -1.43,-6.587 -2.813,-6.587 c -1.68,0 -3.051,0.244 -4.116,0.733 -1.064,0.487 -1.983,1.345 -2.756,2.574 -0.773,1.228 -1.159,2.801 -1.159,4.718 0,2.555 0.68,4.52 2.039,5.892 1.36,1.373 3.283,2.06 5.77,2.06 1.946,0 3.475,-0.394 4.589,-1.181 C 2.668,7.422 3.495,6.214 4.036,4.584 L -0.18,3.646 C -0.327,4.116 -0.481,4.461 -0.643,4.679 -0.91,5.044 -1.236,5.325 -1.623,5.521 -2.01,5.719 -2.441,5.816 -2.919,5.816 -4.001,5.816 -4.83,5.382 -5.406,4.512 -5.842,3.866 -6.06,2.852 -6.06,1.47 c 0,-1.712 0.26,-2.886 0.78,-3.521 0.52,-0.636 1.251,-0.953 2.192,-0.953 0.913,0 1.604,0.257 2.07,0.77 C -0.55,-1.722 -0.211,-0.977 0,0"
       style="fill:#ffffff;fill-opacity:1;fill-rule:nonzero;stroke:none"
       transform="matrix(1.3333333,0,0,-1.3333333,4066.9564,650.20053)"
       clip-path="url(#clipPath517)" />
    <path
       id="path518"
       d="M 0,0 -1.705,5.554 -3.393,0 Z m 0.99,-3.341 h -5.419 l -0.753,-2.55 h -4.875 L -4.25,9.559 H 0.957 L 6.763,-5.891 H 1.764 Z"
       style="fill:#ffffff;fill-opacity:1;fill-rule:nonzero;stroke:none"
       transform="matrix(1.3333333,0,0,-1.3333333,4086.8249,650.77733)"
       clip-path="url(#clipPath519)" />
    <path
       id="path520"
       d="m 0,0 c 3.59,-2.82 6.465,-4.236 8.639,-4.236 h 0.343 c 1.646,0.113 2.988,2.274 4.013,6.486 h 9.139 c -1.478,-8.76 -4.639,-13.835 -9.479,-15.214 -1.256,-0.385 -2.538,-0.581 -3.846,-0.581 -3.419,0 -6.805,1.3 -10.169,3.906 -3.59,2.774 -6.44,4.15 -8.561,4.15 h -0.33 c -1.711,-0.107 -3.079,-2.234 -4.1,-6.389 h -9.228 c 1.533,8.754 4.72,13.814 9.563,15.206 1.253,0.335 2.538,0.502 3.849,0.502 C -6.75,3.83 -3.362,2.559 0,0"
       style="fill:#ffffff;fill-opacity:1;fill-rule:nonzero;stroke:none"
       transform="matrix(1.3333333,0,0,-1.3333333,3877.8807,488.34387)"
       clip-path="url(#clipPath521)" />
    <path
       id="path522"
       d="M 0,0 -37.453,-85.869 -73.482,0 H -89.41 v -99.754 h 10.322 V -11.8 l 37.638,-87.954 h 8.492 l 38.281,88.09 v -88.09 H 15.519 V 0 Z"
       style="fill:#ffffff;fill-opacity:1;fill-rule:nonzero;stroke:none"
       transform="matrix(1.3333333,0,0,-1.3333333,3690.3913,324.97773)"
       clip-path="url(#clipPath523)" />
    <path
       id="path524"
       d="m 0,0 c 0,-9.589 -3.113,-17.58 -9.346,-23.971 -6.227,-6.392 -14.084,-9.584 -23.578,-9.584 -9.493,0 -17.361,3.192 -23.584,9.584 -6.229,6.391 -9.345,14.382 -9.345,23.971 v 42.1 h 9.929 V -1.256 c 0,-6.224 2.3,-11.572 6.908,-16.025 4.593,-4.466 9.961,-6.69 16.092,-6.69 6.132,0 11.491,2.224 16.09,6.69 4.603,4.453 6.902,9.801 6.902,16.025 V 42.1 H 0 Z"
       style="fill:#ffffff;fill-opacity:1;fill-rule:nonzero;stroke:none"
       transform="matrix(1.3333333,0,0,-1.3333333,3813.6819,415.66107)"
       clip-path="url(#clipPath525)" />
    <path
       id="path526"
       d="m 0,0 c 0.513,-6.656 -1.829,-12.422 -7.056,-17.299 -5.236,-4.88 -11.23,-7.112 -18.04,-6.675 -6.261,0.437 -11.51,2.936 -15.738,7.512 -4.215,4.573 -6.337,10.018 -6.337,16.331 h 10.33 v -2.485 c 0,-2.528 1.392,-5.144 4.176,-7.839 2.783,-2.716 5.745,-4.019 8.887,-3.93 4.176,0.087 7.494,1.34 9.927,3.77 2.174,2.248 3.307,5.196 3.396,8.836 0.084,6.321 -3.532,10.664 -10.858,12.998 l -8.736,2.758 c -9.152,2.846 -13.937,9.026 -14.372,18.529 -0.256,5.701 1.68,10.58 5.837,14.641 4.134,4.061 9.145,6.222 14.997,6.483 5.068,0.262 9.809,-1.36 14.22,-4.858 4.414,-3.498 6.79,-7.836 7.14,-13.022 v -2.198 h -10.452 v 1.701 c 0,2.622 -1.099,4.746 -3.328,6.363 -2.224,1.614 -4.767,2.428 -7.632,2.428 -2.797,-0.084 -5.212,-1.083 -7.263,-2.998 -2.046,-1.908 -3.106,-4.296 -3.195,-7.159 -0.353,-5.301 2.826,-9.078 9.534,-11.334 l 8.619,-2.862 C -6.015,16.321 -0.704,9.759 0,0"
       style="fill:#ffffff;fill-opacity:1;fill-rule:nonzero;stroke:none"
       transform="matrix(1.3333333,0,0,-1.3333333,3887.1984,428.61387)"
       clip-path="url(#clipPath527)" />
    <path
       id="path528"
       d="m 0,0 h -66.885 c 0.785,-7.43 3.961,-13.563 9.531,-18.398 5.581,-4.841 12.154,-7.211 19.738,-7.127 11.753,0.172 20.157,5.567 25.201,16.195 h 10.586 c -2.786,-7.948 -7.488,-14.254 -14.105,-18.911 -6.63,-4.668 -13.976,-7.043 -22.087,-7.127 -10.18,-0.178 -19.194,3.522 -27.038,11.073 -7.836,7.561 -11.844,16.561 -12.017,27.011 -0.261,11.057 3.679,20.58 11.826,28.565 8.14,7.991 17.734,11.683 28.806,11.083 9.922,-0.601 18.54,-4.667 25.861,-12.181 C -3.53,22.757 0,14.466 0,5.306 Z m -9.793,9.068 c -1.39,6.91 -4.662,12.501 -9.804,16.777 -5.141,4.275 -11.279,6.452 -18.424,6.546 -7.135,0.081 -13.385,-2.036 -18.736,-6.355 -5.356,-4.317 -8.736,-9.977 -10.128,-16.968 z"
       style="fill:#ffffff;fill-opacity:1;fill-rule:nonzero;stroke:none"
       transform="matrix(1.3333333,0,0,-1.3333333,3998.5163,413.24373)"
       clip-path="url(#clipPath529)" />
    <path
       id="path530"
       d="m 0,0 c 0,-10.628 -3.906,-19.806 -11.695,-27.535 -7.792,-7.728 -17.059,-11.423 -27.763,-11.08 -10.373,0.259 -19.146,4.147 -26.331,11.661 -7.184,7.52 -10.782,16.457 -10.782,26.823 0,10.795 3.883,20.063 11.633,27.792 7.752,7.723 16.988,11.42 27.699,11.072 10.366,-0.34 19.16,-4.296 26.394,-11.855 C -3.624,19.319 0,10.361 0,0 m -9.937,0.769 c -0.259,7.815 -3.077,14.485 -8.443,20.047 -5.369,5.552 -11.852,8.33 -19.44,8.33 -7.951,0.087 -14.722,-2.668 -20.311,-8.267 -5.58,-5.591 -8.422,-12.339 -8.511,-20.23 -0.175,-7.813 2.402,-14.647 7.732,-20.491 5.324,-5.866 11.834,-8.922 19.505,-9.179 8.215,-0.437 15.222,2.386 21.025,8.457 5.806,6.069 8.621,13.181 8.443,21.333"
       style="fill:#ffffff;fill-opacity:1;fill-rule:nonzero;stroke:none"
       transform="matrix(1.3333333,0,0,-1.3333333,4112.454,408.75053)"
       clip-path="url(#clipPath531)" />
    <path
       id="path532"
       d="m 0,0 c 0.098,-4.035 -1.355,-7.535 -4.369,-10.473 -3.021,-2.939 -6.562,-4.341 -10.636,-4.221 -3.942,0.102 -7.28,1.586 -10.023,4.448 -2.724,2.852 -4.092,6.254 -4.092,10.196 0,4.111 1.474,7.632 4.414,10.573 2.94,2.941 6.449,4.343 10.514,4.22 4.166,-0.175 7.642,-1.823 10.415,-4.984 V 33.244 H 0 Z M -3.777,0.301 C -3.843,3.27 -4.9,5.814 -6.941,7.917 c -2.045,2.119 -4.519,3.176 -7.444,3.176 -2.986,0.027 -5.558,-1.02 -7.697,-3.15 -2.135,-2.124 -3.226,-4.688 -3.263,-7.692 -0.027,-2.982 0.962,-5.573 2.986,-7.797 2.031,-2.229 4.507,-3.398 7.429,-3.495 3.116,-0.162 5.786,0.916 7.989,3.218 2.211,2.313 3.268,5.018 3.164,8.124"
       style="fill:#ffffff;fill-opacity:1;fill-rule:nonzero;stroke:none"
       transform="matrix(1.3333333,0,0,-1.3333333,3623.3059,528.1616)"
       clip-path="url(#clipPath533)" />
    <path
       id="path534"
       d="m 0,0 h -25.451 c 0.297,-2.821 1.509,-5.149 3.629,-6.991 2.126,-1.852 4.624,-2.752 7.5,-2.718 4.478,0.065 7.682,2.127 9.598,6.166 h 4.028 c -1.06,-3.019 -2.849,-5.423 -5.372,-7.203 -2.51,-1.771 -5.315,-2.679 -8.393,-2.707 -3.884,-0.074 -7.313,1.334 -10.295,4.212 -2.983,2.878 -4.503,6.303 -4.568,10.277 -0.106,4.212 1.397,7.828 4.495,10.874 3.097,3.035 6.751,4.437 10.961,4.212 3.782,-0.233 7.058,-1.774 9.843,-4.631 C -1.344,8.663 0,5.505 0,2.025 Z m -3.728,3.456 c -0.529,2.63 -1.773,4.759 -3.726,6.382 -1.958,1.622 -4.292,2.456 -7.007,2.485 -2.725,0.031 -5.094,-0.774 -7.135,-2.412 -2.035,-1.641 -3.329,-3.794 -3.855,-6.455 z"
       style="fill:#ffffff;fill-opacity:1;fill-rule:nonzero;stroke:none"
       transform="matrix(1.3333333,0,0,-1.3333333,3667.7879,529.67547)"
       clip-path="url(#clipPath535)" />
    <path
       id="path536"
       d="m 170.401,330.543 h 4.834 v 48.803 h -4.834 z"
       style="fill:#ffffff;fill-opacity:1;fill-rule:nonzero;stroke:none"
       transform="matrix(1.3333333,0,0,-1.3333333,3344,1056)"
       clip-path="url(#clipPath537)" />
    <path
       id="path538"
       d="m 0,0 c 0,-5.186 -1.897,-9.675 -5.687,-13.453 -3.792,-3.768 -8.293,-5.584 -13.507,-5.411 -5.041,0.126 -9.306,2.023 -12.803,5.698 -3.499,3.674 -5.244,8.043 -5.244,13.103 0,5.27 1.884,9.801 5.656,13.579 3.772,3.776 8.264,5.578 13.467,5.411 5.045,-0.162 9.327,-2.098 12.844,-5.788 C -1.761,9.437 0,5.068 0,0 m -4.83,0.382 c -0.125,3.815 -1.5,7.075 -4.105,9.796 -2.615,2.715 -5.768,4.065 -9.463,4.065 -3.867,0.042 -7.152,-1.305 -9.877,-4.039 -2.716,-2.732 -4.096,-6.028 -4.134,-9.885 -0.086,-3.82 1.168,-7.153 3.755,-10.021 2.588,-2.857 5.758,-4.353 9.493,-4.479 3.986,-0.206 7.395,1.167 10.226,4.137 2.821,2.962 4.186,6.449 4.105,10.426"
       style="fill:#ffffff;fill-opacity:1;fill-rule:nonzero;stroke:none"
       transform="matrix(1.3333333,0,0,-1.3333333,3634.5876,591.22667)"
       clip-path="url(#clipPath539)" />
    <path
       id="path540"
       d="m 0,0 c 0.26,-3.252 -0.887,-6.073 -3.429,-8.456 -2.538,-2.381 -5.462,-3.475 -8.762,-3.263 -3.057,0.21 -5.608,1.434 -7.663,3.671 -2.048,2.245 -3.081,4.901 -3.081,7.975 h 5.021 v -1.209 c 0,-1.235 0.675,-2.517 2.034,-3.83 1.358,-1.33 2.794,-1.958 4.321,-1.916 2.031,0.037 3.642,0.649 4.827,1.837 1.056,1.099 1.609,2.535 1.658,4.325 0.036,3.09 -1.723,5.204 -5.288,6.345 l -4.253,1.342 c -4.444,1.392 -6.774,4.419 -6.984,9.058 -0.131,2.786 0.824,5.172 2.838,7.161 2.015,1.978 4.447,3.035 7.295,3.16 2.467,0.123 4.772,-0.664 6.917,-2.37 2.147,-1.714 3.307,-3.841 3.47,-6.363 v -1.076 h -5.075 v 0.83 c 0,1.29 -0.54,2.315 -1.628,3.108 -1.078,0.79 -2.318,1.191 -3.721,1.191 -1.35,-0.048 -2.523,-0.531 -3.523,-1.46 -0.993,-0.945 -1.511,-2.107 -1.557,-3.504 -0.167,-2.592 1.379,-4.437 4.638,-5.547 L -7.743,9.618 C -2.917,7.975 -0.338,4.769 0,0"
       style="fill:#ffffff;fill-opacity:1;fill-rule:nonzero;stroke:none"
       transform="matrix(1.3333333,0,0,-1.3333333,3668.9005,600.9244)"
       clip-path="url(#clipPath541)" />
    <path
       id="path542"
       d="M 0,0 V -83.693 L -56.597,0 h -13.85 v -99.762 h 10.654 v 86.809 L -0.929,-99.762 H 10.523 V 0 Z"
       style="fill:#ffffff;fill-opacity:1;fill-rule:nonzero;stroke:none"
       transform="matrix(1.3333333,0,0,-1.3333333,3775.3048,483.2716)"
       clip-path="url(#clipPath543)" />
    <path
       id="path544"
       d="m 345.323,412.451 h 10.131 v 17.221 h -10.131 z m 0,-82.672 h 10.131 v 73.855 h -10.131 z"
       style="fill:#ffffff;fill-opacity:1;fill-rule:nonzero;stroke:none"
       transform="matrix(1.3333333,0,0,-1.3333333,3344,1056)"
       clip-path="url(#clipPath545)" />
    <path
       id="path546"
       d="m 0,0 h -10.125 v 43.144 c 0,6.227 -2.342,11.577 -7.033,16.075 -4.686,4.487 -10.152,6.732 -16.405,6.732 -6.344,0 -11.855,-2.245 -16.543,-6.732 -4.699,-4.498 -7.03,-9.848 -7.03,-16.075 V 0 h -10.126 v 42.113 c 0,9.592 3.208,17.556 9.592,23.901 6.392,6.35 14.432,9.523 24.107,9.523 9.584,0 17.577,-3.173 23.969,-9.523 C -3.205,59.669 0,51.705 0,42.113 Z"
       style="fill:#ffffff;fill-opacity:1;fill-rule:nonzero;stroke:none"
       transform="matrix(1.3333333,0,0,-1.3333333,3921.9925,616.28787)"
       clip-path="url(#clipPath547)" />
    <path
       id="path548"
       d="m 0,0 c 0,-10.62 -3.972,-19.803 -11.92,-27.529 -7.951,-7.732 -17.389,-11.426 -28.309,-11.076 -10.565,0.254 -19.516,4.139 -26.839,11.656 -7.329,7.515 -10.991,16.457 -10.991,26.813 0,10.8 3.961,20.067 11.857,27.799 7.904,7.728 17.315,11.418 28.233,11.077 10.57,-0.348 19.537,-4.298 26.915,-11.852 C -3.684,19.322 0,10.369 0,0 m -10.136,0.777 c -0.256,7.807 -3.129,14.489 -8.6,20.036 -5.471,5.56 -12.09,8.338 -19.824,8.338 -8.1,0.082 -14.995,-2.666 -20.703,-8.27 -5.688,-5.599 -8.572,-12.336 -8.66,-20.224 -0.186,-7.818 2.443,-14.647 7.87,-20.502 5.434,-5.856 12.053,-8.912 19.889,-9.173 8.365,-0.435 15.502,2.381 21.428,8.456 5.905,6.073 8.789,13.186 8.6,21.339"
       style="fill:#ffffff;fill-opacity:1;fill-rule:nonzero;stroke:none"
       transform="matrix(1.3333333,0,0,-1.3333333,4040.2629,567.04773)"
       clip-path="url(#clipPath549)" />
    <path
       id="path550"
       d="m 0,0 c 0.539,-6.651 -1.866,-12.417 -7.193,-17.299 -5.324,-4.88 -11.449,-7.096 -18.372,-6.667 -6.399,0.429 -11.758,2.931 -16.056,7.514 -4.304,4.576 -6.452,10.019 -6.452,16.319 h 10.518 v -2.473 c 0,-2.538 1.418,-5.149 4.256,-7.854 2.849,-2.703 5.861,-4.003 9.058,-3.925 4.265,0.089 7.637,1.34 10.115,3.784 2.221,2.239 3.383,5.18 3.477,8.827 0.089,6.327 -3.61,10.654 -11.075,13.001 l -8.911,2.75 c -9.32,2.849 -14.21,9.026 -14.639,18.529 -0.277,5.714 1.709,10.586 5.932,14.646 4.238,4.064 9.327,6.227 15.303,6.489 5.167,0.254 9.994,-1.361 14.495,-4.861 4.494,-3.503 6.922,-7.839 7.281,-13.019 v -2.198 h -10.649 v 1.701 c 0,2.619 -1.133,4.738 -3.401,6.363 -2.261,1.609 -4.861,2.422 -7.794,2.422 -2.842,-0.083 -5.296,-1.088 -7.384,-2.998 -2.096,-1.905 -3.184,-4.296 -3.27,-7.156 -0.348,-5.298 2.888,-9.089 9.714,-11.342 l 8.799,-2.857 C -6.13,16.324 -0.714,9.756 0,0"
       style="fill:#ffffff;fill-opacity:1;fill-rule:nonzero;stroke:none"
       transform="matrix(1.3333333,0,0,-1.3333333,4112.1749,586.91493)"
       clip-path="url(#clipPath551)" />
    <path
       id="path552"
       d="m 149.749,327.801 h 4.097 v 220.471 h -4.097 z"
       style="fill:#ffffff;fill-opacity:1;fill-rule:nonzero;stroke:none"
       transform="matrix(1.3333333,0,0,-1.3333333,3344,1056)"
       clip-path="url(#clipPath553)" />
    <g
       opacity="0.600006"
       id="g555"
       clip-path="url(#clipPath556)"
       style="fill:#ffffff;fill-opacity:1">
      <path
         d="m 0,0 c 5.513,1.368 12.029,2.724 19.744,3.979 37.798,6.159 42.306,12.03 42.616,12.517 -0.267,1.073 -3.702,3.077 -24.017,4.322 -8.264,0.503 -14.9,1.034 -20.264,1.638 C -17.155,16.522 -26.81,8.555 -28.036,7.415 -26.835,6.768 -17.82,2.185 0,0"
         style="fill:#ffffff;fill-opacity:1;fill-rule:nonzero;stroke:none"
         transform="matrix(1.3333333,0,0,-1.3333333,3433.8493,565.05227)"
         clip-path="url(#clipPath554)"
         id="path555" />
    </g>
    <path
       id="path557"
       d="M 0,0 C 0,0 0.051,0.053 0.149,0.144 0.055,0.194 0,0.225 0,0.225 Z"
       style="fill:#ffffff;fill-opacity:1;fill-rule:nonzero;stroke:none"
       transform="matrix(1.3333333,0,0,-1.3333333,3396.2696,555.358)"
       clip-path="url(#clipPath558)" />
    <path
       id="path559"
       d="m 0,0 c -0.332,-0.505 -4.894,-6.373 -42.617,-12.522 -7.719,-1.256 -14.239,-2.611 -19.753,-3.982 -22.693,-5.63 -28.177,-11.473 -28.177,-11.473 v -0.311 -28.173 -0.241 c 0,0 0.057,-0.031 0.147,-0.081 1.23,1.143 10.881,9.108 46.12,15.041 0.554,0.095 1.098,0.189 1.663,0.278 39.468,6.436 42.639,12.564 42.639,12.564 v 0.612 28.165 0.159 C 0.022,0.036 0.013,0.021 0,0"
       style="fill:#ffffff;fill-opacity:1;fill-rule:nonzero;stroke:none"
       transform="matrix(1.3333333,0,0,-1.3333333,3516.9977,479.45507)"
       clip-path="url(#clipPath560)" />
    <path
       id="path561"
       d="m 0,0 c -0.315,-0.487 -4.823,-6.358 -42.617,-12.511 -7.717,-1.262 -14.234,-2.617 -19.744,-3.988 -22.696,-5.635 -28.182,-11.475 -28.182,-11.475 v -0.309 -28.17 -0.464 c 0,0 8.452,9.037 47.926,15.468 39.468,6.429 42.639,12.554 42.639,12.554 v 0.612 28.168 0.152 C 0.022,0.037 0.013,0.024 0,0"
       style="fill:#ffffff;fill-opacity:1;fill-rule:nonzero;stroke:none"
       transform="matrix(1.3333333,0,0,-1.3333333,3516.9977,543.05733)"
       clip-path="url(#clipPath562)" />
    <path
       id="path563"
       d="m 0,0 c 2.412,0.981 4.865,1.897 7.366,2.721 v 14.471 c 0,3.027 2.44,5.476 5.453,5.476 3.01,0 5.454,-2.449 5.454,-5.476 V 5.73 c 2.882,0.643 5.8,1.169 8.751,1.588 v 14.584 c 0,3.519 2.851,6.378 6.35,6.378 3.509,0 6.354,-2.859 6.354,-6.378 V 8.401 c 1.137,0.032 2.266,0.058 3.416,0.058 1.49,0 2.968,-0.039 4.44,-0.1 v 14.506 c 0,3.94 3.181,7.132 7.112,7.132 3.929,0 7.108,-3.192 7.108,-7.132 V 6.931 c 2.44,-0.403 4.852,-0.879 7.234,-1.429 v 11.69 c 0,3.027 2.446,5.476 5.454,5.476 3.015,0 5.459,-2.449 5.459,-5.476 V 2.378 C 83.147,1.29 86.268,0.06 89.329,-1.3 v 21.381 l 4.286,5.279 v 28.417 c 0,0 -0.025,0.018 -0.047,0.042 -5.767,2.627 -11.808,4.756 -18.054,6.35 V 47.11 c 0,-4.366 -3.523,-7.904 -7.877,-7.904 -4.343,0 -7.871,3.538 -7.871,7.904 v 15.879 c -3.746,0.39 -7.542,0.607 -11.389,0.607 -6.828,0 -13.492,-0.643 -19.971,-1.836 V 45.915 c 0,-3.7 -2.986,-6.709 -6.672,-6.709 -3.697,0 -6.685,3.009 -6.685,6.709 V 58.389 C 8.582,56.317 2.376,53.67 -3.506,50.483 -3.693,50.284 -3.857,50.096 -3.98,49.913 V 29.39 L 0,20.811 Z"
       style="fill:#ffffff;fill-opacity:1;fill-rule:nonzero;stroke:none"
       transform="matrix(1.3333333,0,0,-1.3333333,3396.8523,409.78653)"
       clip-path="url(#clipPath564)" />
    <g
       opacity="0.600006"
       id="g566"
       clip-path="url(#clipPath567)"
       style="fill:#ffffff;fill-opacity:1">
      <path
         d="m 0,0 c -4.652,0.283 -8.773,0.573 -12.455,0.882 l 0.411,-1.457 -2.444,1.632 c -2.381,0.215 -4.564,0.437 -6.558,0.67 -37.366,-6.392 -45.482,-15.042 -45.482,-15.042 0,0 8.984,-5.146 28.177,-7.498 5.51,1.363 12.03,2.724 19.753,3.979 37.725,6.149 42.284,12.015 42.618,12.522 C 23.737,-3.239 20.272,-1.245 0,0"
         style="fill:#ffffff;fill-opacity:1;fill-rule:nonzero;stroke:none"
         transform="matrix(1.3333333,0,0,-1.3333333,3484.9732,473.7064)"
         clip-path="url(#clipPath565)"
         id="path566" />
    </g>
    <path
       id="path568"
       d="m 0,0 -10.893,-7.289 3.538,12.65 -10.285,8.142 13.101,0.523 3.464,9.404 C -35.899,17.098 -43.587,8.904 -43.587,8.904 V 8.6 -19.568 -20.023 c 0,0 8.116,8.645 45.477,15.044 0.814,0.136 1.613,0.277 2.452,0.411 0.683,0.112 1.329,0.222 1.99,0.332 z"
       style="fill:#ffffff;fill-opacity:1;fill-rule:nonzero;stroke:none"
       transform="matrix(1.3333333,0,0,-1.3333333,3454.386,464.75827)"
       clip-path="url(#clipPath569)" />
    <path
       id="path570"
       d="M 0,0 C -1.162,-0.191 -2.292,-0.379 -3.4,-0.573 L 0.2,-10.342 13.286,-10.866 3,-19.008 5.524,-27.992 c 34.221,6.075 37.115,11.616 37.115,11.616 v 0.607 28.171 0.157 C 42.639,12.559 39.467,6.434 0,0"
       style="fill:#ffffff;fill-opacity:1;fill-rule:nonzero;stroke:none"
       transform="matrix(1.3333333,0,0,-1.3333333,3460.1752,432.26653)"
       clip-path="url(#clipPath571)" />
  </g>
</svg>
